# xmcd
#
# Track frame offsets:
#	150
#	2815
#	14452
#	33910
#	51880
#	68707
#	87562
#	109565
#	124645
#	143282
#	146520
#	164382
#	174425
#	184805
#	196442
#	212012
#	228972
#	247482
#	267195
#
# Disc length: 3978 seconds
#
# Revision: 0
# Processed by: cddbd v1.5.2PL0 Copyright (c) Steve Scherf et al.
# Submitted via: EZCDAudioConverter 2.1.7.1
#
DISCID=070f8813
DTITLE=Los Amigos Invisibles - Arepa 3000
DYEAR=2000
DGENRE=
TTITLE0=Intro
TTITLE1=Arepa 3000
TTITLE2=La Vecina
TTITLE3=Qué Rico
TTITLE4=Cuchi-Cuchi
TTITLE5=Si Estuvieras Aquí
TTITLE6=Masturbation Session
TTITLE7=Mami Te Extraño
TTITLE8=Mujer Policía
TTITLE9=No Le Metas Mano
TTITLE10=Amor
TTITLE11=Pipi
TTITLE12=El Barro
TTITLE13=Domingo Echao
TTITLE14=Piazo E' Perra
TTITLE15=El Baile Del Sobón
TTITLE16=Fonnovo
TTITLE17=Caliente
TTITLE18=Llegaste Tarde
EXTD=
EXTT0=
EXTT1=
EXTT2=
EXTT3=
EXTT4=
EXTT5=
EXTT6=
EXTT7=
EXTT8=
EXTT9=
EXTT10=
EXTT11=
EXTT12=
EXTT13=
EXTT14=
EXTT15=
EXTT16=
EXTT17=
EXTT18=
PLAYORDER=
